{
 "cells": [
  {
   "cell_type": "code",
   "execution_count": 7,
   "metadata": {},
   "outputs": [
    {
     "name": "stderr",
     "output_type": "stream",
     "text": [
      "ffmpeg version 6.0 Copyright (c) 2000-2023 the FFmpeg developers\n",
      "  built with Apple clang version 14.0.3 (clang-1403.0.22.14.1)\n",
      "  configuration: --prefix=/opt/homebrew/Cellar/ffmpeg/6.0_1 --enable-shared --enable-pthreads --enable-version3 --cc=clang --host-cflags= --host-ldflags= --enable-ffplay --enable-gnutls --enable-gpl --enable-libaom --enable-libaribb24 --enable-libbluray --enable-libdav1d --enable-libmp3lame --enable-libopus --enable-librav1e --enable-librist --enable-librubberband --enable-libsnappy --enable-libsrt --enable-libsvtav1 --enable-libtesseract --enable-libtheora --enable-libvidstab --enable-libvmaf --enable-libvorbis --enable-libvpx --enable-libwebp --enable-libx264 --enable-libx265 --enable-libxml2 --enable-libxvid --enable-lzma --enable-libfontconfig --enable-libfreetype --enable-frei0r --enable-libass --enable-libopencore-amrnb --enable-libopencore-amrwb --enable-libopenjpeg --enable-libspeex --enable-libsoxr --enable-libzmq --enable-libzimg --disable-libjack --disable-indev=jack --enable-videotoolbox --enable-audiotoolbox --enable-neon\n",
      "  libavutil      58.  2.100 / 58.  2.100\n",
      "  libavcodec     60.  3.100 / 60.  3.100\n",
      "  libavformat    60.  3.100 / 60.  3.100\n",
      "  libavdevice    60.  1.100 / 60.  1.100\n",
      "  libavfilter     9.  3.100 /  9.  3.100\n",
      "  libswscale      7.  1.100 /  7.  1.100\n",
      "  libswresample   4. 10.100 /  4. 10.100\n",
      "  libpostproc    57.  1.100 / 57.  1.100\n",
      "Input #0, mov,mp4,m4a,3gp,3g2,mj2, from 'new.mov':\n",
      "  Metadata:\n",
      "    major_brand     : qt  \n",
      "    minor_version   : 0\n",
      "    compatible_brands: qt  \n",
      "    creation_time   : 2023-09-10T05:56:34.000000Z\n",
      "    com.apple.quicktime.make: Apple\n",
      "    com.apple.quicktime.model: Mac14,2\n",
      "    com.apple.quicktime.software: macOS 13.5.2 (22G91)\n",
      "    com.apple.quicktime.creationdate: 2023-09-10T13:54:44+0800\n",
      "  Duration: 00:00:31.91, start: 0.000000, bitrate: 9867 kb/s\n",
      "  Stream #0:0[0x1](und): Video: h264 (Main) (avc1 / 0x31637661), yuv420p(tv, bt709, progressive), 1216x698, 9834 kb/s, 59.94 fps, 60 tbr, 6k tbn (default)\n",
      "    Metadata:\n",
      "      creation_time   : 2023-09-10T05:56:34.000000Z\n",
      "      handler_name    : Core Media Video\n",
      "      vendor_id       : [0][0][0][0]\n",
      "      encoder         : H.264\n",
      "Stream mapping:\n",
      "  Stream #0:0 (h264) -> setpts:default\n",
      "  setpts:default -> Stream #0:0 (gif)\n",
      "Press [q] to stop, [?] for help\n",
      "[swscaler @ 0x109060000] [swscaler @ 0x148008000] No accelerated colorspace conversion found from yuv420p to bgr8.\n",
      "[swscaler @ 0x109060000] [swscaler @ 0x118b70000] No accelerated colorspace conversion found from yuv420p to bgr8.\n",
      "[swscaler @ 0x109060000] [swscaler @ 0x118b80000] No accelerated colorspace conversion found from yuv420p to bgr8.\n",
      "[swscaler @ 0x109060000] [swscaler @ 0x118b90000] No accelerated colorspace conversion found from yuv420p to bgr8.\n",
      "[swscaler @ 0x109060000] [swscaler @ 0x118ba0000] No accelerated colorspace conversion found from yuv420p to bgr8.\n",
      "[swscaler @ 0x109060000] [swscaler @ 0x118bb0000] No accelerated colorspace conversion found from yuv420p to bgr8.\n",
      "[swscaler @ 0x109060000] [swscaler @ 0x118bc0000] No accelerated colorspace conversion found from yuv420p to bgr8.\n",
      "[swscaler @ 0x109060000] [swscaler @ 0x118bd0000] No accelerated colorspace conversion found from yuv420p to bgr8.\n",
      "[swscaler @ 0x109060000] [swscaler @ 0x118be0000] No accelerated colorspace conversion found from yuv420p to bgr8.\n",
      "[swscaler @ 0x109060000] [swscaler @ 0x109070000] No accelerated colorspace conversion found from yuv420p to bgr8.\n",
      "[swscaler @ 0x109060000] [swscaler @ 0x1090f0000] No accelerated colorspace conversion found from yuv420p to bgr8.\n",
      "[swscaler @ 0x109060000] [swscaler @ 0x109100000] No accelerated colorspace conversion found from yuv420p to bgr8.\n",
      "[swscaler @ 0x109060000] [swscaler @ 0x109110000] No accelerated colorspace conversion found from yuv420p to bgr8.\n",
      "[swscaler @ 0x109060000] [swscaler @ 0x109120000] No accelerated colorspace conversion found from yuv420p to bgr8.\n",
      "[swscaler @ 0x109060000] [swscaler @ 0x109130000] No accelerated colorspace conversion found from yuv420p to bgr8.\n",
      "[swscaler @ 0x109060000] [swscaler @ 0x109140000] No accelerated colorspace conversion found from yuv420p to bgr8.\n",
      "[swscaler @ 0x109060000] [swscaler @ 0x109150000] No accelerated colorspace conversion found from yuv420p to bgr8.\n",
      "[swscaler @ 0x109060000] [swscaler @ 0x109160000] No accelerated colorspace conversion found from yuv420p to bgr8.\n",
      "[swscaler @ 0x118be0000] [swscaler @ 0x140040000] No accelerated colorspace conversion found from yuv420p to bgr8.\n",
      "[swscaler @ 0x118be0000] [swscaler @ 0x140050000] No accelerated colorspace conversion found from yuv420p to bgr8.\n",
      "[swscaler @ 0x118be0000] [swscaler @ 0x140060000] No accelerated colorspace conversion found from yuv420p to bgr8.\n",
      "[swscaler @ 0x118be0000] [swscaler @ 0x140070000] No accelerated colorspace conversion found from yuv420p to bgr8.\n",
      "[swscaler @ 0x118be0000] [swscaler @ 0x140080000] No accelerated colorspace conversion found from yuv420p to bgr8.\n",
      "[swscaler @ 0x118be0000] [swscaler @ 0x140090000] No accelerated colorspace conversion found from yuv420p to bgr8.\n",
      "[swscaler @ 0x118be0000] [swscaler @ 0x1400a0000] No accelerated colorspace conversion found from yuv420p to bgr8.\n",
      "[swscaler @ 0x118be0000] [swscaler @ 0x1400b0000] No accelerated colorspace conversion found from yuv420p to bgr8.\n",
      "[swscaler @ 0x118be0000] [swscaler @ 0x150008000] No accelerated colorspace conversion found from yuv420p to bgr8.\n",
      "[swscaler @ 0x109060000] [swscaler @ 0x109070000] No accelerated colorspace conversion found from yuv420p to bgr8.\n",
      "[swscaler @ 0x109060000] [swscaler @ 0x1090f0000] No accelerated colorspace conversion found from yuv420p to bgr8.\n",
      "[swscaler @ 0x109060000] [swscaler @ 0x109100000] No accelerated colorspace conversion found from yuv420p to bgr8.\n",
      "[swscaler @ 0x109060000] [swscaler @ 0x109110000] No accelerated colorspace conversion found from yuv420p to bgr8.\n",
      "[swscaler @ 0x109060000] [swscaler @ 0x109120000] No accelerated colorspace conversion found from yuv420p to bgr8.\n",
      "[swscaler @ 0x109060000] [swscaler @ 0x109130000] No accelerated colorspace conversion found from yuv420p to bgr8.\n",
      "[swscaler @ 0x109060000] [swscaler @ 0x109140000] No accelerated colorspace conversion found from yuv420p to bgr8.\n",
      "[swscaler @ 0x109060000] [swscaler @ 0x109150000] No accelerated colorspace conversion found from yuv420p to bgr8.\n",
      "[swscaler @ 0x109060000] [swscaler @ 0x109160000] No accelerated colorspace conversion found from yuv420p to bgr8.\n",
      "Output #0, gif, to 'output.gif':\n",
      "  Metadata:\n",
      "    major_brand     : qt  \n",
      "    minor_version   : 0\n",
      "    compatible_brands: qt  \n",
      "    com.apple.quicktime.creationdate: 2023-09-10T13:54:44+0800\n",
      "    com.apple.quicktime.make: Apple\n",
      "    com.apple.quicktime.model: Mac14,2\n",
      "    com.apple.quicktime.software: macOS 13.5.2 (22G91)\n",
      "    encoder         : Lavf60.3.100\n",
      "  Stream #0:0: Video: gif, bgr8(pc, gbr/bt709/bt709, progressive), 1216x698, q=2-31, 200 kb/s, 60 fps, 100 tbn\n",
      "    Metadata:\n",
      "      encoder         : Lavc60.3.100 gif\n",
      "frame=  420 fps=136 q=-0.0 Lsize=   13310kB time=00:00:06.98 bitrate=15621.1kbits/s dup=0 drop=138 speed=2.27x    \n",
      "video:13310kB audio:0kB subtitle:0kB other streams:0kB global headers:0kB muxing overhead: 0.000147%\n"
     ]
    }
   ],
   "source": [
    "import ffmpeg\n",
    "\n",
    "def convert_video_to_gif(input_video_path, output_gif_path, duration=5, playback_speed=0.5):\n",
    "  \"\"\"Converts a video to a GIF and slows down the video by the specified factor.\n",
    "\n",
    "  Args:\n",
    "    input_video_path: The path to the input video file.\n",
    "    output_gif_path: The path to the output GIF file.\n",
    "    playback_speed: The playback speed. # the lower the value is -> the faster the video is\n",
    "  \"\"\"\n",
    "\n",
    "  ffmpeg.input(input_video_path).filter('setpts', f'{playback_speed}*PTS').output(output_gif_path, format='gif', t=duration).run(overwrite_output=True)\n",
    "\n",
    "\n",
    "if __name__ == '__main__':\n",
    "  input_video_path = 'runs/pose/predict/側面.mp4'\n",
    "  output_gif_path = 'output.gif'\n",
    "  duration = 5 # seconds\n",
    "\n",
    "  convert_video_to_gif(input_video_path, output_gif_path, duration, playback_speed=0.75)\n"
   ]
  }
 ],
 "metadata": {
  "kernelspec": {
   "display_name": "sports-ai",
   "language": "python",
   "name": "python3"
  },
  "language_info": {
   "codemirror_mode": {
    "name": "ipython",
    "version": 3
   },
   "file_extension": ".py",
   "mimetype": "text/x-python",
   "name": "python",
   "nbconvert_exporter": "python",
   "pygments_lexer": "ipython3",
   "version": "3.11.4"
  },
  "orig_nbformat": 4
 },
 "nbformat": 4,
 "nbformat_minor": 2
}
